<svg width="631" height="260" viewBox="0 0 631 260" fill="none" xmlns="http://www.w3.org/2000/svg">
<path d="M461.463 243.74C473.651 247.6 486.974 246.17 498.579 241.07C510.185 235.97 519.662 227.34 526.81 217.03C533.958 206.72 539.219 193.97 541.94 181.33C543.496 174.12 544.199 166.64 543.205 159.3C542.803 156.32 542.09 153.16 539.942 150.9C538.245 149.11 535.906 148.12 533.476 147.81C521.72 146.33 512.996 157.38 509.532 167.23C505.818 177.76 506.169 189.53 509.894 200.01C513.468 210.06 520.204 219.24 529.641 224.52C540.143 230.4 552.732 230.16 563.746 225.82C587.509 216.46 603.1 191.09 604.054 166.12C604.175 163.06 604.064 159.99 603.743 156.94C603.602 155.66 602.458 157.77 602.528 158.4C605.118 182.53 592.669 207.64 571.566 219.92C561.547 225.75 549.349 228.55 537.984 225.29C528.115 222.46 520.144 215.33 515.024 206.61C509.753 197.65 507.273 186.91 508.428 176.57C509.582 166.23 515.004 154.42 525.716 150.92C530.424 149.38 536.569 149.67 539.721 154.01C541.679 156.71 542.06 160.31 542.311 163.53C542.582 167.03 542.492 170.54 542.11 174.03C540.745 186.59 536.288 199.22 529.902 210.11C523.909 220.33 515.707 229.39 505.426 235.45C495.146 241.51 482.777 244.64 470.83 243.19C467.929 242.84 465.077 242.21 462.296 241.33C461.634 241.12 460.841 243.49 461.493 243.7L461.463 243.74Z" fill="#1D1D1B"/>
<path d="M546.257 79.2401C540.665 75.2101 535.083 71.1901 529.491 67.1601C520.546 60.7201 511.601 54.2701 502.665 47.8301C500.627 46.3601 498.579 44.8901 496.541 43.4201C496.371 43.3001 496.23 43.3501 496.079 43.4701C490.618 47.5101 485.156 51.5501 479.695 55.6001C471.001 62.0301 462.307 68.4701 453.612 74.9001C451.635 76.3701 449.647 77.8301 447.669 79.3001C447.077 79.7401 447.006 82.1701 447.87 81.5301C453.331 77.4901 458.793 73.4501 464.254 69.4001C472.948 62.9701 481.643 56.5301 490.337 50.1001C492.315 48.6301 494.302 47.1701 496.28 45.7001L495.818 45.7501C501.41 49.7801 506.992 53.8001 512.584 57.8301C521.53 64.2701 530.475 70.7201 539.41 77.1601C541.448 78.6301 543.496 80.1001 545.534 81.5701C546.237 82.0801 546.909 79.7201 546.267 79.2501L546.257 79.2401Z" fill="#1D1D1B"/>
<path d="M531.248 99.5001H530.957L532.513 100.93C533.155 96.7001 532.784 92.2401 532.061 88.0401C531.338 83.8401 530.214 79.4601 527.714 75.9901C525.365 72.7301 521.911 71.6201 518.026 72.7201C514.141 73.8201 511.49 77.2601 510.044 81.0301C507.776 86.9701 507.515 93.6201 507.504 99.9001L508.167 99.4901H508.087L509.643 100.92C510.285 96.6901 509.914 92.2301 509.191 88.0301C508.468 83.8301 507.344 79.4501 504.844 75.9801C502.495 72.7201 499.041 71.6101 495.156 72.7101C491.271 73.8101 488.62 77.2501 487.174 81.0201C484.906 86.9601 484.645 93.6101 484.635 99.8901L485.297 99.4801H485.006L486.562 100.91C487.205 96.6801 486.833 92.2201 486.11 88.0201C485.387 83.8201 484.263 79.4401 481.763 75.9701C479.414 72.7101 475.96 71.6001 472.075 72.7001C468.19 73.8001 465.539 77.2401 464.094 81.0101C461.825 86.9501 461.564 93.6001 461.554 99.8801C461.554 100.83 463.782 101.91 463.782 100.9C463.782 95.6701 464.023 90.3501 465.308 85.2601C466.252 81.5301 467.919 77.4601 471.392 75.4101C472.969 74.4801 474.896 74.0101 476.733 74.1201C478.039 74.2001 478.962 74.9601 479.735 75.9501C482.084 78.9501 483.078 83.0101 483.761 86.6701C484.564 90.9701 484.986 95.5201 484.333 99.8701C484.223 100.59 485.257 101.3 485.889 101.3H486.181C486.422 101.3 486.843 101.23 486.843 100.89C486.843 95.6601 487.084 90.3401 488.369 85.2501C489.313 81.5201 490.979 77.4501 494.453 75.4001C496.029 74.4701 497.957 74.0001 499.794 74.1101C501.099 74.1901 502.023 74.9501 502.796 75.9401C505.145 78.9401 506.139 83.0001 506.822 86.6601C507.625 90.9601 508.047 95.5101 507.394 99.8601C507.284 100.58 508.318 101.29 508.95 101.29H509.03C509.271 101.29 509.693 101.22 509.693 100.88C509.693 95.6501 509.934 90.3301 511.219 85.2401C512.163 81.5101 513.829 77.4401 517.303 75.3901C518.879 74.4601 520.807 73.9901 522.644 74.1001C523.949 74.1801 524.873 74.9401 525.646 75.9301C527.995 78.9301 528.989 82.9901 529.672 86.6501C530.475 90.9501 530.897 95.5001 530.244 99.8501C530.134 100.57 531.168 101.28 531.8 101.28H532.091C533.567 101.28 532.141 99.4401 531.198 99.4401L531.248 99.5001Z" fill="#1D1D1B"/>
<path d="M123.775 53.9899C125.15 56.6499 127.279 58.2199 130.311 58.3199C131.505 58.3599 132.7 58.1899 133.885 58.0999C135.451 57.9699 136.967 58.1499 138.513 58.4799C145.862 60.0799 151.424 65.5999 156.855 70.4399C162.287 75.2799 167.206 80.0299 171.894 85.2999C176.251 90.2099 180.488 95.5199 183.239 101.51C184.795 104.89 186.241 108.83 184.775 112.47C183.309 116.11 180.026 119.2 176.914 121.53C173.802 123.86 170.238 125.79 166.593 127.33C163.993 128.42 161.293 129.23 158.662 130.25C154.416 131.9 148.01 135.01 148.322 140.44C148.432 142.41 149.366 144.24 150.249 145.97C151.303 148.02 152.357 150.08 153.382 152.16C155.369 156.17 157.277 160.21 159.104 164.29C162.778 172.46 166.202 180.7 167.989 189.51C169.716 197.97 170.178 206.69 169.354 215.28C169.154 217.41 168.862 219.53 168.501 221.64L170.449 220.22C162.287 216.38 154.305 212.12 146.274 208.04C144.908 207.35 143.533 206.66 142.177 205.95L141.274 207.33C143.352 206.13 146.394 206.57 148.703 206.56C151.303 206.55 153.894 206.54 156.494 206.52C157.166 206.52 158.16 205.75 158.281 205.08C159.496 198.11 156.313 191.22 152.89 185.34C149.054 178.76 144.607 172.56 140.722 166C138.493 162.24 136.355 158.44 134.286 154.59C132.339 150.96 130.1 147.26 128.805 143.34C127.65 139.85 127.449 136.03 128.644 132.53C129.718 129.37 131.787 126.71 134.317 124.56C139.457 120.2 145.219 116.03 147.779 109.54C147.99 109.01 147.278 109.19 147.027 109.28C146.545 109.46 145.942 109.93 145.741 110.43C143.402 116.37 138.041 120.15 133.333 124.13C128.303 128.38 124.98 134.39 125.903 141.1C126.436 144.99 128.273 148.42 130.05 151.86C132.088 155.81 134.216 159.71 136.425 163.57C140.34 170.4 144.687 176.92 148.894 183.56C153.11 190.22 157.608 198.13 156.193 206.3L157.98 204.86C154.897 204.87 151.815 204.89 148.723 204.9C146.123 204.91 143.603 204.85 141.284 206.19C141.053 206.33 139.778 207.25 140.38 207.57C148.362 211.74 156.434 215.74 164.475 219.78C165.861 220.48 167.246 221.19 168.652 221.85C169.294 222.15 170.509 220.99 170.599 220.43C172.065 211.83 172.246 203.05 171.111 194.4C169.987 185.8 167.467 177.58 164.094 169.61C160.58 161.31 156.725 153.15 152.588 145.13C151.072 142.19 149.165 138.56 151.584 135.56C153.221 133.53 156.012 132.47 158.381 131.56C161.052 130.54 163.782 129.71 166.413 128.59C169.937 127.08 173.34 125.25 176.472 123.03C179.605 120.81 182.345 118.34 184.584 115.36C187.054 112.08 188.088 108.66 186.944 104.64C185.177 98.4399 181.442 92.9799 177.436 87.9999C172.959 82.4299 167.919 77.3199 162.698 72.4599C160.299 70.2299 157.849 68.0499 155.359 65.9099C152.709 63.6399 150.068 61.2599 147.037 59.4899C144.005 57.7199 139.969 56.2899 136.284 56.3799C133.845 56.4499 131.305 57.1499 128.986 56.0299C127.49 55.3099 126.516 53.9499 125.783 52.5199C125.512 51.9999 123.414 53.3299 123.755 53.9999L123.775 53.9899Z" fill="#1D1D1B"/>
<path d="M138.844 66.1299C143.713 73.2299 147.498 81.1299 149.195 89.5999C150.119 94.2299 150.731 99.1999 148.954 103.71C147.548 107.28 145.179 110.79 142.288 113.34C137.238 117.81 130.582 119.09 124.066 119.78C120.572 120.15 117.058 120.39 113.565 120.86C109.8 121.36 106.156 122.21 102.531 123.33C97.6321 124.84 92.8131 126.68 87.7833 127.74C85.4943 128.22 83.0748 128.67 80.7155 128.43C78.3562 128.19 75.5653 126.99 75.5351 124.31L75.1637 124.88C82.1411 124.06 89.229 123.89 96.1061 122.35C100.795 121.3 105.302 119.52 109.75 117.74C117.882 114.5 126.004 111.05 133.794 107.05C134.989 106.44 137.499 105.66 137.519 104.03C137.559 101.96 136.415 99.6899 135.692 97.7999C132.971 90.7099 129.849 83.6999 128.112 76.2899C127.319 72.9399 126.506 68.9199 127.741 65.5699C129.698 60.2899 136.284 62.5599 138.834 66.1299C139.065 66.4499 139.567 66.8999 139.928 66.5199C140.29 66.1399 139.758 65.2599 139.557 64.9699C137.399 61.9599 132.178 58.4799 128.453 60.8099C125.753 62.4999 125.421 66.2899 125.542 69.1499C125.883 76.9499 129.126 84.6499 131.947 91.8299C133.122 94.8099 134.407 97.7599 135.391 100.8C135.611 101.49 135.943 102.4 135.873 102.93C135.883 102.86 135.842 102.97 135.792 103.02C135.531 103.27 135.16 103.46 134.848 103.64C132.037 105.3 129.016 106.65 126.054 108.02C121.667 110.05 117.229 111.99 112.772 113.84C108.003 115.82 103.174 117.85 98.2144 119.32C90.4538 121.62 82.2516 121.68 74.2601 122.63C73.9489 122.67 73.8887 122.93 73.8887 123.2C73.9389 127.28 77.533 130.22 81.3781 130.67C86.0164 131.22 91.0662 129.55 95.4435 128.19C100.062 126.75 104.62 125.01 109.358 123.99C113.223 123.16 117.159 122.78 121.084 122.42C128.112 121.77 135.672 121.18 141.625 117C144.958 114.66 147.508 111.38 149.396 107.81C151.735 103.39 152.016 98.7099 151.333 93.8299C149.868 83.3499 145.49 73.6699 139.537 64.9799C139.316 64.6499 138.794 64.2099 138.443 64.5899C138.091 64.9699 138.613 65.8499 138.814 66.1399L138.844 66.1299Z" fill="#1D1D1B"/>
<path d="M132.851 42.3101C132.971 39.2701 132.178 36.0701 129.959 33.8701C127.741 31.6701 124.438 30.3801 121.396 29.7501C115.352 28.5001 108.525 30.5501 105.955 36.5501L107.22 36.6001C105.132 33.1501 101.889 30.4901 98.0036 29.2901C94.6504 28.2501 90.233 28.3501 87.9038 31.3701C85.4441 34.5701 86.4381 39.1701 88.7873 42.1101C91.3273 45.2901 95.7045 47.7101 99.8408 47.4401C102.541 47.2701 105.081 46.1901 107.832 46.1401C109.318 46.1101 110.774 46.3501 112.179 46.8301C113.264 47.2001 114.157 47.5501 115.251 47.0301C115.643 46.8401 115.703 46.1101 115.633 45.7501C115.412 44.6901 115 43.3301 115.633 42.3301C116.024 41.7101 116.948 41.1201 117.701 41.4301C118.655 41.8201 118.876 43.5001 119.016 44.3701C119.187 45.4401 119.117 46.5001 119.097 47.5801C119.046 50.8701 120.653 54.4901 124.478 54.5001C127.168 54.5001 129.116 52.0701 130.341 49.9601C131.696 47.6401 132.66 44.9801 132.861 42.2901C132.951 40.9701 131.375 40.2301 131.254 41.8801C131.064 44.5801 129.769 47.4901 128.122 49.6001C127.349 50.6001 126.345 51.6001 125.07 51.9201C123.373 52.3501 121.305 51.4001 120.833 49.6701C120.532 48.5601 120.763 47.3501 120.753 46.2101C120.733 45.2101 120.633 44.2101 120.402 43.2401C120.06 41.7501 119.528 39.8001 118.012 39.1001C116.717 38.5001 115.282 39.2301 114.508 40.3201C113.354 41.9501 113.705 44.1701 114.097 45.9901L114.478 44.7101C113.695 45.0801 112.752 44.5401 112.009 44.2901C110.965 43.9501 109.9 43.7601 108.806 43.6901C106.989 43.5701 105.192 43.8001 103.415 44.1601C101.457 44.5601 99.6299 45.1901 97.612 44.8601C95.7246 44.5601 93.9777 43.7501 92.4116 42.6801C89.721 40.8401 86.9501 37.5101 88.5965 34.0901C90.0322 31.1101 94.038 30.7701 96.8892 31.4101C100.714 32.2701 104.077 34.6901 106.105 38.0401C106.427 38.5701 107.069 38.7801 107.37 38.0901C109.529 33.0301 115.402 31.2001 120.522 32.0001C123.132 32.4101 125.833 33.3101 128.022 34.8201C130.441 36.4901 131.405 38.9901 131.295 41.8701C131.244 43.1801 132.831 43.9401 132.901 42.2801L132.851 42.3101Z" fill="#1D1D1B"/>
<path d="M72.0315 196.09C75.0634 189.28 78.1053 182.47 81.1373 175.67C85.9763 164.83 90.8053 153.99 95.6443 143.14C96.7487 140.66 97.853 138.19 98.9574 135.71C99.2786 135 96.9495 134.08 96.5981 134.85C93.5662 141.66 90.5242 148.47 87.4923 155.27C82.6532 166.11 77.8242 176.95 72.9852 187.8C71.8809 190.28 70.7765 192.75 69.6722 195.23C69.3509 195.94 71.6801 196.86 72.0315 196.09V196.09Z" fill="#1D1D1B"/>
<path d="M92.5421 130.26C94.6604 132.6 96.7687 134.95 98.8871 137.29L114.127 154.18C120.301 161.03 126.476 167.87 132.66 174.72C137.981 180.61 143.292 186.51 148.613 192.4L153.893 198.25C154.697 199.14 155.47 200.23 156.383 201.01C156.423 201.05 156.464 201.09 156.494 201.14C157.166 201.88 158.411 199.74 157.819 199.09C155.701 196.75 153.592 194.4 151.474 192.06C146.394 186.43 141.314 180.8 136.234 175.17C130.06 168.32 123.885 161.48 117.701 154.63C112.38 148.74 107.069 142.84 101.748 136.95L96.4675 131.1C95.6644 130.21 94.8913 129.12 93.9777 128.34C93.9376 128.3 93.8974 128.26 93.8673 128.21C93.1947 127.47 91.9498 129.61 92.5421 130.26V130.26Z" fill="#1D1D1B"/>
<path d="M125.672 120.53C121.074 122.93 116.526 126.43 115.021 131.62C113.705 136.16 116.637 140.98 118.032 145.19C121.948 157.08 126.315 168.8 130.411 180.62C132.69 187.19 134.778 193.83 136.385 200.6L138.182 199.92C134.598 199.92 131.023 200.09 127.459 200.49C126.717 200.57 122.811 201.12 123.845 202.66C124.136 203.09 124.889 203.46 125.301 203.76C126.315 204.51 127.339 205.24 128.363 205.98C134.035 210.06 139.738 214.09 145.44 218.12C146.956 219.2 148.482 220.27 149.998 221.34C150.5 221.69 152.086 221.57 152.387 220.96C153.532 218.61 154.907 216.12 155.5 213.56C155.66 212.88 153.221 213.09 153.07 213.71C152.478 216.27 151.102 218.76 149.958 221.11L152.347 220.73C143.994 214.83 135.581 209 127.349 202.93C127.048 202.71 126.295 202.34 126.124 201.99C126.124 201.99 126.365 201.66 126.636 201.5C126.998 201.28 127.801 201.37 128.212 201.32C129.166 201.22 130.13 201.14 131.094 201.08C133.072 200.95 135.059 200.89 137.037 200.89C137.318 200.89 138.975 200.78 138.834 200.21C136.063 188.48 131.807 177.19 127.72 165.87C125.662 160.17 123.705 154.44 121.787 148.7C120.944 146.17 120.141 143.62 119.187 141.12C118.344 138.94 117.43 136.7 117.179 134.36C116.536 128.17 122.661 123.4 127.51 120.87C127.971 120.63 127.811 120.37 127.409 120.24C126.897 120.08 126.114 120.28 125.652 120.52L125.672 120.53Z" fill="#1D1D1B"/>
<path d="M97.2405 136.22C105.784 137.94 114.338 139.66 122.881 141.37C124.096 141.61 125.311 141.86 126.536 142.1C127.64 142.32 129.126 140.54 127.62 140.23C119.076 138.51 110.523 136.79 101.979 135.08C100.764 134.84 99.5496 134.59 98.3248 134.35C97.2204 134.13 95.7346 135.91 97.2405 136.22Z" fill="#1D1D1B"/>
<path d="M150.47 146.06C160.158 148.49 169.846 150.92 179.534 153.36C180.9 153.7 182.265 154.04 183.63 154.39C184.213 154.54 186.251 153.35 185.458 153.15C175.769 150.72 166.081 148.29 156.393 145.85C155.028 145.51 153.662 145.17 152.297 144.82C151.715 144.67 149.677 145.86 150.47 146.06Z" fill="#1D1D1B"/>
<path d="M248.787 152.92C253.535 154.16 258.284 155.4 263.033 156.63L285.873 162.59C287.609 163.04 289.356 163.5 291.093 163.95C291.665 164.1 293.713 162.92 292.92 162.71C288.172 161.47 283.423 160.23 278.674 159C271.064 157.01 263.444 155.03 255.834 153.04C254.098 152.59 252.351 152.13 250.614 151.68C250.042 151.53 247.994 152.71 248.787 152.92V152.92Z" fill="#1D1D1B"/>
<path d="M191.983 138.11C198.559 139.83 205.145 141.54 211.721 143.26C212.665 143.51 213.598 143.75 214.542 144C215.114 144.15 217.162 142.97 216.369 142.76C209.793 141.04 203.207 139.33 196.631 137.61C195.688 137.36 194.754 137.12 193.81 136.87C193.238 136.72 191.19 137.9 191.983 138.11Z" fill="#1D1D1B"/>
<path d="M170.368 186.8C173.039 181.26 175.699 175.72 178.37 170.18C182.616 161.35 186.873 152.53 191.12 143.7C192.094 141.68 193.068 139.66 194.041 137.63C194.513 136.64 192.124 136 191.742 136.79C189.072 142.33 186.411 147.87 183.741 153.41C179.494 162.24 175.237 171.06 170.991 179.89C170.017 181.91 169.043 183.93 168.069 185.96C167.597 186.95 169.987 187.59 170.368 186.8Z" fill="#1D1D1B"/>
<path d="M186.773 130.44C188.781 132.76 190.789 135.07 192.797 137.39C197.585 142.92 202.384 148.45 207.173 153.98C212.966 160.67 218.769 167.35 224.562 174.04C229.601 179.85 234.631 185.66 239.671 191.46C242.101 194.26 244.44 197.2 246.99 199.9C247.03 199.94 247.06 199.98 247.1 200.02C248.104 201.18 248.968 199.05 248.255 198.22C246.247 195.9 244.239 193.59 242.231 191.27C237.442 185.74 232.643 180.21 227.854 174.68C222.062 167.99 216.259 161.31 210.466 154.62C205.426 148.81 200.396 143 195.357 137.2C192.927 134.4 190.588 131.46 188.038 128.76C187.998 128.72 187.968 128.68 187.927 128.64C186.923 127.48 186.06 129.61 186.773 130.44Z" fill="#1D1D1B"/>
<path d="M360.767 149.98C366.379 151.14 372.001 152.29 377.614 153.45C378.597 153.65 379.591 153.86 380.575 154.06C381.318 154.21 382.292 152.02 381.91 151.94C376.298 150.78 370.676 149.63 365.064 148.47C364.08 148.27 363.086 148.06 362.102 147.86C361.36 147.71 360.386 149.9 360.767 149.98Z" fill="#1D1D1B"/>
<path d="M305.901 138.74C319.063 141.69 332.064 145.28 345.206 148.29C345.758 148.42 345.909 145.98 345.106 145.79C331.964 142.78 318.963 139.19 305.801 136.24C305.239 136.11 305.098 138.56 305.901 138.74Z" fill="#1D1D1B"/>
<path d="M362.514 186.15C365.546 181.04 368.578 175.94 371.61 170.83C376.419 162.73 381.218 154.63 386.027 146.54C387.131 144.67 388.245 142.81 389.35 140.94C389.761 140.25 387.502 140.88 387.191 141.4C384.159 146.51 381.127 151.61 378.095 156.72C373.286 164.82 368.488 172.92 363.679 181.01C362.574 182.88 361.46 184.74 360.356 186.61C359.944 187.3 362.203 186.67 362.514 186.15Z" fill="#1D1D1B"/>
<path d="M277.188 193.85C280.542 187.52 283.905 181.2 287.258 174.87C292.609 164.78 297.96 154.69 303.311 144.61C304.546 142.29 305.771 139.97 307.006 137.65C307.518 136.69 305.128 136.02 304.707 136.81C301.354 143.14 297.99 149.46 294.637 155.79C289.286 165.88 283.935 175.97 278.584 186.05C277.349 188.37 276.124 190.69 274.889 193.01C274.377 193.97 276.767 194.64 277.188 193.85Z" fill="#1D1D1B"/>
<path d="M414.549 203.37C411.196 195.06 407.852 186.76 404.499 178.45C399.208 165.32 393.908 152.19 388.617 139.06C387.402 136.06 386.197 133.06 384.982 130.06C384.641 129.2 382.171 129.05 382.533 129.95C385.886 138.26 389.229 146.56 392.582 154.87C397.873 168 403.174 181.13 408.465 194.26C409.68 197.26 410.884 200.26 412.099 203.26C412.44 204.12 414.91 204.27 414.549 203.37Z" fill="#1D1D1B"/>
<path d="M292.8 122.38C298.833 129.39 304.877 136.41 310.911 143.42C320.469 154.53 330.026 165.63 339.584 176.74C341.792 179.3 343.991 181.86 346.2 184.42C347.194 185.58 348.067 183.45 347.354 182.62C341.321 175.61 335.277 168.59 329.243 161.58C319.685 150.47 310.128 139.37 300.57 128.26C298.362 125.7 296.163 123.14 293.954 120.58C292.96 119.42 292.087 121.55 292.8 122.38V122.38Z" fill="#1D1D1B"/>
<path d="M241.187 116.26C237.322 118 232.844 118.36 228.728 119.25C224.33 120.21 219.943 121.24 215.576 122.35C206.591 124.63 197.646 127.59 188.339 128.31C184.132 128.64 179.454 128.21 176.492 124.85L176.924 126.75C181.05 124.49 185.608 123.14 190.317 122.86C194.192 122.63 198.087 123.5 201.862 122.31C205.225 121.25 208.538 120.03 211.861 118.87C216.851 117.12 221.831 115.36 226.8 113.57C230.113 112.37 233.557 111.31 236.759 109.83C238.125 109.2 237.02 107.36 236.709 106.25C235.876 103.27 235.073 100.28 234.37 97.2699C232.864 90.8499 231.388 83.9299 232.171 77.3099C232.483 74.6899 233.185 71.5699 235.555 70.0299C238.245 68.2899 242.261 68.4899 244.932 70.1499C249.389 72.9199 248.998 80.0299 248.857 84.5699C248.676 90.3699 248.004 96.1899 246.919 101.9C246.417 104.56 245.815 107.2 244.982 109.78C244.399 111.6 243.707 113.51 242.542 115.05C242.171 115.55 241.749 115.98 241.187 116.26C240.444 116.63 241.608 118.84 242.381 118.46C243.757 117.78 244.59 116.2 245.213 114.88C246.237 112.69 246.929 110.33 247.512 107.99C248.987 102.09 249.811 95.9899 250.242 89.9199C250.564 85.4599 251.015 80.4899 249.821 76.1099C248.817 72.4199 246.919 68.8099 243.165 67.3299C240.313 66.2099 236.549 66.1699 233.999 68.0699C231.8 69.7199 231.007 72.6899 230.655 75.2799C230.214 78.5499 230.384 81.8799 230.766 85.1399C231.559 91.9599 233.246 98.6499 235.083 105.26C235.243 105.84 235.404 106.42 235.575 107C235.615 107.14 235.695 107.75 235.816 107.84C236.037 108.01 235.926 107.39 235.996 107.41C235.866 107.37 235.213 107.77 235.073 107.83C233.567 108.45 232.031 109.01 230.505 109.57C225.535 111.41 220.546 113.18 215.556 114.94C211.209 116.47 206.862 118 202.505 119.48C200.426 120.18 198.449 120.72 196.21 120.69C193.8 120.66 191.421 120.42 189.012 120.6C186.743 120.77 184.484 121.18 182.295 121.81C180.107 122.44 177.828 123.39 175.739 124.53C175.097 124.88 175.9 126.12 176.171 126.43C178.591 129.18 182.134 130.45 185.739 130.65C190.347 130.91 195.136 129.92 199.613 128.93C209.111 126.83 218.427 123.98 227.935 121.87C230.445 121.31 232.954 120.77 235.484 120.32C237.834 119.89 240.183 119.43 242.371 118.44C243.114 118.11 241.98 115.88 241.177 116.24L241.187 116.26Z" fill="#1D1D1B"/>
<path d="M244.068 118.61C239.35 124.72 232.131 128.26 225.535 131.96C222.915 133.43 220.174 134.92 217.945 136.97C216.389 138.4 215.104 140.31 215.626 142.51C216.058 144.31 217.223 146.06 218.206 147.6C219.471 149.59 220.907 151.47 222.453 153.25C225.716 157.04 229.431 160.42 233.035 163.88C239.179 169.76 244.841 176.19 250.574 182.47C256.989 189.5 263.665 196.6 268.946 204.54L270.452 204.78C267.33 202.55 263.414 200.14 259.408 200.31C258.214 200.36 256.738 200.67 255.885 201.6C255.634 201.87 256.668 202.52 256.758 202.58C264.177 207.32 271.586 212.06 279.006 216.8C280.06 217.48 281.124 218.15 282.178 218.83C282.298 218.91 283.473 219.54 283.473 219.03C283.282 205.21 275.923 192.83 268.394 181.7C264.478 175.91 260.342 170.27 256.547 164.4C254.69 161.52 252.953 158.58 251.327 155.56C250.313 153.69 249.319 151.8 248.395 149.89C247.652 148.36 245.604 145.41 247.01 143.87C247.682 143.14 248.706 142.64 249.55 142.12C250.473 141.54 251.407 140.97 252.331 140.4C254.138 139.3 255.945 138.22 257.762 137.14C261.457 134.94 265.151 132.74 268.735 130.38C271.747 128.4 275.02 126.39 277.108 123.39C278.654 121.17 279.246 118.59 279.337 115.93C279.538 109.8 277.56 104.02 274.648 98.6901C271.014 92.0501 266.135 86.0901 261.065 80.5001C258.093 77.2301 255.001 74.0701 251.849 70.9601C249.801 68.9401 247.984 66.8401 246.437 64.4001C245.634 63.1401 244.881 61.8201 244.299 60.4401C243.938 59.5901 243.034 57.6501 243.395 56.7001C243.576 56.2201 244.52 55.9201 244.962 55.5801C245.634 55.0701 246.207 54.4401 246.658 53.7301C247.552 52.3301 247.733 50.9301 247.763 49.3201C247.803 47.4201 249.75 47.8301 250.534 46.4301C250.795 45.9601 249.359 45.2801 249.088 45.1701C247.592 44.5401 246.779 42.9101 246.146 41.5101C245.444 39.9701 244.901 38.3601 244.199 36.8201C244.008 36.4101 241.99 35.3901 242.08 35.8901C242.432 37.9001 242.703 39.8801 241.679 41.7401C240.464 43.9301 238.607 45.8501 236.247 46.7601C235.113 47.2001 233.948 47.4001 232.744 47.5601C231.539 47.7201 230.364 47.9601 229.752 49.1001C228.868 50.7701 229.802 52.4801 231.258 53.4101C232.352 54.1101 233.958 54.3201 234.942 55.1401C236.227 56.2301 233.487 57.9101 232.703 58.2501C228.497 60.0701 223.598 56.7401 222.513 52.6001C221.238 47.6901 224.21 42.1801 228.989 40.5001L227.021 39.0801C223.467 40.4201 219.702 38.8901 218.186 35.4001C216.65 31.8701 217.514 27.6101 219.732 24.5601C221.951 21.5101 226.429 19.0901 229.601 22.2801C232.774 25.4701 232.764 30.1401 232.924 34.1701C232.944 34.7601 235.073 35.8001 235.103 35.2401C235.263 32.2001 238.095 29.9901 240.996 29.6701C244.64 29.2701 247.441 31.9601 249.369 34.7001C251.297 37.4401 252.813 40.0601 255.603 41.8401C258.033 43.3801 260.834 44.0801 263.695 44.1701C270.03 44.3501 276.375 41.6101 282.68 43.0101C288.985 44.4101 290.943 52.7601 290.922 58.5301C290.892 64.7901 288.443 71.3501 282.871 74.7101C282.409 74.9901 284.306 76.4501 284.839 76.1301C290.109 72.9501 292.659 67.1101 293.051 61.1501C293.442 55.1901 291.796 47.3201 286.264 43.6601C280.351 39.7501 273.434 41.5701 266.938 42.4101C263.515 42.8601 259.208 43.2201 256.156 41.2501C253.104 39.2801 251.708 35.2801 249.168 32.7101C246.628 30.1401 243.175 27.9601 239.53 28.1901C236.257 28.4001 233.105 30.7501 232.934 34.1601L235.113 35.2301C234.952 31.0701 234.701 26.6101 231.91 23.2601C229.772 20.6901 226.118 18.6201 222.694 19.5001C218.909 20.4701 216.269 24.3501 215.516 27.9901C214.763 31.6301 215.747 35.2501 218.467 37.7601C221.188 40.2701 225.344 41.8701 229.009 40.4901C229.421 40.3401 227.674 38.8401 227.041 39.0701C222.513 40.6601 219.572 45.5101 220.114 50.2501C220.656 54.9901 225.043 58.5501 229.38 59.7901C231.589 60.4201 233.968 60.3301 235.886 58.9601C237.281 57.9601 238.014 56.7201 236.619 55.3901C235.324 54.1501 233.617 53.8201 232.111 52.9601C232.051 52.9301 231.84 52.8601 231.78 52.8001C232.151 53.2201 231.559 51.5501 231.72 52.4301C231.599 51.8001 231.539 51.2601 231.78 50.6401C232.402 49.0501 234.079 49.0701 235.514 48.8601C238.848 48.3601 241.257 46.7001 243.195 44.0001C244.801 41.7701 244.721 39.5701 244.259 36.9501L242.141 36.0201C243.104 38.1501 243.757 40.4801 245.012 42.4601C246.166 44.2901 247.843 45.5501 249.831 46.3801L248.385 45.1201C247.863 46.0501 246.99 45.9501 246.237 46.5601C245.233 47.3701 245.715 48.6401 245.544 49.7501C245.172 52.1201 243.536 54.1601 241.337 55.1001C241.247 55.1301 241.217 55.1901 241.227 55.2801C241.076 57.6301 242.291 60.0201 243.406 62.0201C244.681 64.3001 246.217 66.4801 247.963 68.4301C250.343 71.1001 253.053 73.5001 255.533 76.0801C258.214 78.8701 260.824 81.7401 263.314 84.7101C267.691 89.9501 271.817 95.5901 274.538 101.88C276.676 106.82 278.042 112.78 276.757 118.12C276.104 120.83 274.478 123.08 272.4 124.91C269.458 127.49 265.944 129.55 262.631 131.6C259.318 133.65 255.794 135.71 252.371 137.77C250.694 138.77 249.028 139.79 247.381 140.83C246.257 141.53 244.349 142.35 244.299 143.89C244.249 145.51 245.554 147.49 246.237 148.9C247.09 150.68 248.004 152.42 248.937 154.16C250.493 157.06 252.12 159.9 253.887 162.68C257.35 168.12 261.135 173.34 264.78 178.65C271.988 189.13 279.357 200.5 280.973 213.38C281.164 214.9 281.264 216.43 281.285 217.97L282.58 218.17C275.16 213.43 267.751 208.69 260.332 203.95C259.278 203.27 258.214 202.6 257.16 201.92L258.033 202.9C258.635 202.24 259.669 201.94 260.513 201.82C263.776 201.34 266.968 203.28 269.488 205.08C269.659 205.2 271.446 206 270.994 205.32C266.436 198.48 260.824 192.31 255.342 186.21C249.861 180.11 244.329 173.96 238.607 168.06C231.72 160.97 223.447 154.76 218.789 145.85C217.564 143.5 217.253 141.53 219.03 139.37C220.807 137.21 223.487 135.69 225.917 134.28C233.035 130.17 241.066 126.57 246.217 119.9C246.518 119.51 244.45 118.11 244.068 118.61V118.61Z" fill="#1D1D1B"/>
<path d="M360.787 21.99C358.93 20.46 356.802 19.36 354.533 18.58C352.264 17.8 349.724 17.08 347.385 17.54C343.218 18.35 340.026 23.03 340.839 27.19C341.271 29.39 342.807 31.17 344.483 32.57C345.246 33.21 346.371 33.82 346.853 34.73C347.294 35.57 346.682 36.63 346.25 37.36C344.473 40.38 341.321 42.58 340.809 46.26C340.146 51.04 344.192 54.22 347.856 56.46C352.073 59.03 356.982 60.53 361.912 60.79C366.148 61.01 371.61 60.79 374.321 57.04C376.63 53.86 376.74 49.34 374.421 46.15C371.56 42.21 366.369 40.83 363.408 36.99C362.343 35.61 363.478 33.85 363.94 32.42C364.331 31.2 364.532 29.97 364.422 28.69C364.191 26.06 362.745 23.71 360.797 21.99C359.854 21.16 359.332 23.53 360.014 24.13C361.601 25.53 363.137 27.53 363.016 29.76C362.896 31.99 361.41 33.9 361.5 36.21C361.58 38.15 362.775 39.33 364.1 40.59C365.426 41.85 366.952 42.88 368.478 43.89C371.449 45.86 375.385 48.46 374.562 52.57C373.658 57.12 369.03 58.07 365.034 58.28C360.617 58.51 356.169 57.72 352.103 56C350.105 55.15 348.198 54.08 346.441 52.81C344.804 51.63 342.666 50.03 342.254 47.94C341.662 44.92 345.015 42.3 346.591 40.11C348.539 37.4 349.453 33.88 346.591 31.46C344.915 30.05 342.355 28.41 342.184 25.98C342.024 23.7 344.102 21.45 346.019 20.52C348.308 19.41 350.999 20.01 353.328 20.73C355.657 21.45 358.087 22.54 360.024 24.14C360.998 24.94 361.51 22.58 360.807 22L360.787 21.99Z" fill="#1D1D1B"/>
<path d="M343.138 19.97C341.582 20.84 340.397 21.96 339.212 23.27C337.435 25.22 335.317 26.7 333.048 28.05C332.034 28.65 331 29.22 329.956 29.77C328.741 30.41 327.366 30.92 326.281 31.75C324.575 33.05 323.631 35.2 323.28 37.27C322.687 40.76 324.003 44.11 326.753 46.34C330.629 49.48 336.07 49.94 340.839 49.37C341.873 49.25 342.134 46.78 340.929 46.92C336.863 47.4 332.385 47.11 328.821 44.88C326.271 43.28 324.374 40.59 324.886 37.48C325.027 36.65 325.308 35.81 325.749 35.09C326.472 33.93 327.536 33.46 328.721 32.86C330.709 31.85 332.687 30.8 334.574 29.61C336.462 28.42 338.238 27.1 339.754 25.47C340.919 24.22 341.963 23.1 343.479 22.26C344.363 21.77 344.302 19.32 343.138 19.98V19.97Z" fill="#1D1D1B"/>
<path d="M346.531 53.8099C344.463 54.0799 343.921 57.6199 343.469 59.1599C342.254 63.3599 341.03 67.5399 339.303 71.5599C336.833 77.3199 333.5 82.7499 329.303 87.4299C323.681 93.6899 316.533 98.3099 309.616 103C305.831 105.56 302.016 108.07 298.181 110.56C296.344 111.75 294.185 113.57 291.967 113.93C289.989 114.25 288.041 114.02 286.184 114.94C284.678 115.69 283.363 116.85 282.479 118.29C281.596 119.73 280.903 121.62 282.148 122.97C283.262 124.17 285.12 124.17 286.616 123.99C288.704 123.75 290.762 123.29 292.77 122.66C301.213 120.01 308.893 115.02 316.573 110.73C324.786 106.14 333.068 101.65 341.16 96.8599C344.614 94.8099 347.866 92.4899 350.216 89.1799C352.183 86.4199 353.77 83.1599 354.723 79.8999C356.4 74.2299 357.002 68.2399 358.036 62.4399C358.237 61.3299 358.438 60.2299 358.699 59.1399C358.96 58.0499 356.48 57.6799 356.219 58.7799C353.539 69.9599 354.242 83.6099 344.744 91.8499C341.702 94.4899 338.058 96.3399 334.564 98.3199C330.578 100.57 326.593 102.82 322.607 105.06C314.947 109.36 307.357 113.9 299.496 117.83C295.862 119.65 292.077 121.23 288.081 122.02C287.158 122.2 286.204 122.39 285.25 122.42C283.905 122.46 283.814 121.44 284.196 120.35C284.788 118.65 286.154 117.15 287.77 116.35C289.617 115.45 291.736 115.9 293.673 115.38C295.611 114.86 297.197 113.6 298.803 112.59C302.448 110.28 306.042 107.89 309.616 105.49C316.373 100.96 323.481 96.4999 329.263 90.7299C333.61 86.3899 337.225 81.3599 339.985 75.8799C342.084 71.7199 343.67 67.3299 344.995 62.8699C345.457 61.3299 345.869 59.7699 346.35 58.2299C346.632 57.3299 346.893 56.2999 347.465 55.5299C347.605 55.3399 347.555 55.5499 347.646 55.3399C347.646 55.3199 347.475 55.3999 347.595 55.3799C348.127 55.3099 348.469 54.8099 348.208 54.3299C347.907 53.7799 347.083 53.7199 346.551 53.7899L346.531 53.8099Z" fill="#1D1D1B"/>
<path d="M361.62 59.31C362.885 68.79 365.034 78.15 366.69 87.57C367.594 92.73 368.749 98.19 368.226 103.44C367.684 108.88 364.944 113.67 362.504 118.45C360.064 123.23 358.297 127.85 358.287 133.15C358.277 138.87 359.582 144.53 360.807 150.09C362.032 155.65 363.036 160.93 363.126 166.52C363.217 172.11 362.544 177.95 361.169 183.5C358.097 195.91 351.521 207.38 342.204 216.19L342.947 216.15C335.638 212.19 329.775 206.07 326.201 198.58L325.82 200.02C329.665 201.51 333.5 203.01 337.345 204.49C338.751 205.03 340.487 205.73 341.853 204.72C343.118 203.78 343.75 202 344.343 200.6C347.284 193.69 347.646 185.86 347.897 178.46C348.178 170.3 347.836 162.13 346.913 154.02C346.029 146.29 344.162 138.78 342.646 131.16C340.919 122.49 339.995 113.67 342.375 105.03C342.596 104.21 341.04 102.32 340.728 103.47C336.662 118.24 342.013 132.82 344.433 147.36C345.718 155.08 346.25 162.96 346.3 170.78C346.35 178.6 346.24 186.36 344.423 193.79C343.911 195.87 343.248 197.92 342.335 199.86C341.993 200.59 341.642 201.36 341.15 202C340.357 203.03 339.343 203.08 338.168 202.73C336.02 202.09 333.932 201.11 331.843 200.3C329.755 199.49 327.536 198.63 325.388 197.8C324.484 197.45 324.846 198.9 325.006 199.24C328.821 207.23 335.146 213.94 342.957 218.17C343.238 218.32 343.449 218.36 343.7 218.13C360.335 202.42 367.955 178.38 363.598 155.99C362.474 150.2 360.898 144.48 360.245 138.6C359.934 135.8 359.833 132.91 360.335 130.13C360.807 127.53 361.751 125.03 362.875 122.64C365.084 117.96 367.915 113.53 369.24 108.48C370.686 102.95 369.823 97.21 368.939 91.65C367.253 81.02 364.703 70.52 363.277 59.85C363.146 58.86 361.41 57.69 361.631 59.31H361.62Z" fill="#1D1D1B"/>
<path d="M336.954 97.96C333.641 104.11 330.508 110.36 327.215 116.53C325.91 118.97 324.133 121.6 323.942 124.44C323.822 126.2 324.183 127.99 324.625 129.69C325.9 134.57 328.139 139.22 330.418 143.7C333.038 148.85 335.909 153.87 338.831 158.86C341.291 163.07 343.911 167.22 346.11 171.56C346.32 171.98 348.489 170.74 348.218 170.2C346.361 166.52 344.172 163 342.084 159.45C339.243 154.61 336.411 149.75 333.791 144.78C331.352 140.15 328.982 135.41 327.356 130.43C326.743 128.56 326.211 126.61 326.091 124.63C325.94 122.04 327.025 119.86 328.219 117.6C331.843 110.79 335.327 103.9 338.992 97.11C339.253 96.63 338.53 96.85 338.329 96.92C337.857 97.09 337.215 97.51 336.964 97.97L336.954 97.96Z" fill="#1D1D1B"/>
<path d="M171.222 201.15H203.599C212.845 201.15 222.092 201.15 231.338 201.15H265.623C266.004 201.15 266.557 201.25 266.928 201.15C266.978 201.14 267.048 201.15 267.099 201.15C267.811 201.15 266.647 199.07 265.844 199.07H233.466C224.22 199.07 214.974 199.07 205.727 199.07C197.766 199.07 189.805 199.07 181.833 199.07H171.432C171.051 199.07 170.499 198.97 170.127 199.07C170.077 199.08 170.007 199.07 169.957 199.07C169.244 199.07 170.408 201.15 171.212 201.15H171.222Z" fill="#1D1D1B"/>
<path d="M171.081 215.97C174.474 215.9 177.868 215.84 181.261 215.77C189.403 215.61 197.555 215.45 205.697 215.29C215.546 215.1 225.405 214.9 235.254 214.71C243.767 214.54 252.281 214.37 260.794 214.21L269.177 214.04C270.482 214.01 271.868 214.12 273.173 213.96C273.233 213.96 273.293 213.96 273.353 213.96C273.946 213.95 274.157 213.36 273.946 212.88C273.685 212.3 272.982 212.02 272.39 212.03C268.996 212.1 265.603 212.16 262.21 212.23L237.773 212.71C227.925 212.9 218.066 213.1 208.217 213.29C199.704 213.46 191.19 213.63 182.677 213.79L174.294 213.96C172.989 213.99 171.603 213.88 170.298 214.04C170.238 214.04 170.178 214.04 170.117 214.04C169.525 214.05 169.314 214.64 169.525 215.12C169.786 215.7 170.489 215.98 171.081 215.97V215.97Z" fill="#1D1D1B"/>
<path d="M278.182 200.43C285.662 200.19 293.151 199.94 300.631 199.7C312.457 199.32 324.284 198.93 336.1 198.55C338.821 198.46 341.542 198.37 344.272 198.28C345.407 198.24 346.24 196.11 344.694 196.16C337.215 196.4 329.725 196.65 322.246 196.89C310.419 197.27 298.593 197.66 286.776 198.04C284.056 198.13 281.335 198.22 278.604 198.31C277.47 198.35 276.636 200.48 278.182 200.43Z" fill="#1D1D1B"/>
<path d="M283.102 214.17C289.135 214.12 295.169 214.08 301.203 214.03C310.77 213.96 320.348 213.88 329.916 213.81C332.124 213.79 334.343 213.78 336.552 213.76C337.757 213.76 336.933 211.41 335.829 211.41C329.795 211.46 323.762 211.5 317.728 211.55C308.16 211.62 298.583 211.7 289.015 211.77C286.806 211.79 284.587 211.8 282.379 211.82C281.174 211.82 281.997 214.17 283.102 214.17Z" fill="#1D1D1B"/>
<path d="M348.469 213.64C356.962 213.31 365.446 212.75 373.919 212.21C385.113 211.5 396.307 210.77 407.471 209.74C410.884 209.43 414.328 209.15 417.711 208.55C419.227 208.28 420.783 207.8 421.847 206.61C423.604 204.64 422.811 201.87 421.416 199.95C419.789 197.72 417.249 196.26 414.458 196.22C412.461 196.2 410.453 196.29 408.455 196.33C402.622 196.47 396.799 196.65 390.966 196.84C379.973 197.2 368.979 197.6 357.986 197.98C357.364 198 356.741 198.02 356.119 198.04C355.276 198.07 356.46 200.19 357.324 200.16C366.801 199.85 376.278 199.49 385.755 199.17C391.819 198.97 397.893 198.77 403.957 198.59C406.407 198.52 408.866 198.45 411.316 198.4C413.274 198.36 415.573 198.02 417.47 198.61C419.558 199.26 421.817 201.42 420.823 203.79C420.151 205.38 418.384 206.06 416.798 206.36C413.726 206.94 410.573 207.19 407.461 207.49C396.829 208.5 386.177 209.21 375.525 209.9C366.65 210.47 357.775 211.03 348.89 211.44C348.348 211.46 347.816 211.49 347.274 211.51C346.431 211.54 347.615 213.66 348.479 213.63L348.469 213.64Z" fill="#1D1D1B"/>
<path d="M112.862 195C112.792 212.41 101.919 228.43 85.5847 234.76C69.1802 241.11 49.7136 236.64 38.4192 223.02C27.1649 209.45 25.8096 189.63 34.8451 174.54C43.8806 159.45 61.52 151.35 78.8281 154.29C96.086 157.22 109.549 171.1 112.33 188.25C112.691 190.48 112.852 192.74 112.862 195C112.862 195.73 114.9 196.91 114.9 196.33C114.83 178.1 103.094 161.6 86.1268 154.95C68.9894 148.24 48.9104 153.21 37.0136 167.22C25.1168 181.23 23.5808 201.87 33.1384 217.56C42.696 233.25 61.0984 241.88 79.1594 238.74C97.2205 235.6 111.416 221.1 114.338 203.25C114.709 200.96 114.89 198.65 114.9 196.33C114.9 195.6 112.862 194.41 112.862 195V195Z" fill="#1D1D1B"/>
<path d="M455.279 195C455.209 212.41 444.336 228.43 428.002 234.76C411.597 241.11 392.13 236.64 380.836 223.02C369.582 209.45 368.226 189.63 377.262 174.54C386.247 159.53 403.937 151.35 421.245 154.29C438.503 157.22 451.966 171.1 454.747 188.25C455.108 190.48 455.269 192.74 455.279 195C455.279 195.73 457.317 196.91 457.317 196.33C457.247 178.1 445.51 161.6 428.544 154.95C411.577 148.3 391.327 153.21 379.431 167.22C367.514 181.25 365.998 201.87 375.555 217.56C385.113 233.25 403.515 241.88 421.576 238.74C439.477 235.63 453.833 221.1 456.755 203.25C457.126 200.96 457.307 198.65 457.317 196.33C457.317 195.6 455.279 194.41 455.279 195V195Z" fill="#1D1D1B"/>
<path d="M77.1214 127.13C74.993 126.99 72.7342 127.46 70.7463 128.17C67.8951 129.19 65.325 131.01 63.9295 133.74C62.9356 135.68 62.6645 137.92 62.8051 140.07C62.8352 140.59 63.0862 141.36 63.6183 141.6C64.1504 141.84 64.3612 141.31 64.3311 140.87C64.1203 137.64 65.1945 134.67 67.7546 132.6C69.7524 130.98 72.3326 130.1 74.8525 129.69C75.7661 129.54 76.6696 129.45 77.6033 129.51C78.6173 129.57 78.0049 127.18 77.1214 127.12V127.13Z" fill="#1D1D1B"/>
<path d="M388.516 119.55C388.807 122.49 389.099 126.26 386.488 128.35C384.169 130.2 380.836 128.83 378.196 128.51C373.397 127.92 368.498 127.66 363.658 127.75L365.245 128.87C368.407 125.84 372.895 124.14 376.991 122.79C381.087 121.44 385.755 120.18 390.183 120.4C390.645 120.42 390.996 120.29 390.825 119.82C390.655 119.35 389.631 119.16 389.239 119.14C384.591 118.91 379.792 120.12 375.405 121.53C371.017 122.94 366.329 124.72 363.006 127.9C362.414 128.47 364.271 129.03 364.592 129.02C369.823 128.92 375.264 129.09 380.424 129.99C383.246 130.48 386.639 131.31 388.978 129.1C391.478 126.75 391.217 123.09 390.906 119.99C390.835 119.26 388.426 118.72 388.506 119.57L388.516 119.55Z" fill="#1D1D1B"/>
<path d="M340.909 23.21C340.186 24.88 339.644 26.62 338.911 28.28C338.489 29.22 337.636 31.64 336.391 31.69C336 31.7 334.132 32.48 334.725 33.05C335.267 33.57 335.849 33.98 336.411 34.46C336.923 34.9 336.512 36.36 336.482 37.03C336.431 38.35 336.291 39.85 336.743 41.12C337.415 43.02 339.845 43.48 341.411 44.37C342.033 44.73 344.031 43.38 343.459 43.06C342.194 42.34 340.176 41.93 339.313 40.67C338.801 39.92 338.74 38.97 338.73 38.09C338.71 36.57 338.791 35.05 338.991 33.54C339.002 33.44 338.971 33.36 338.871 33.31C337.998 33.01 337.415 32.36 336.763 31.74L335.096 33.1C340.186 32.92 341.451 26.33 343.047 22.68C343.419 21.84 341.16 22.61 340.889 23.21H340.909Z" fill="#1D1D1B"/>
<path d="M134.226 96.03C129.457 102.66 122.59 106.72 114.87 109.09C111.005 110.28 107.039 111.12 103.074 111.92C99.108 112.72 94.8311 113.21 90.8957 114.46C86.3478 115.91 82.4424 118.48 79.3101 122.06C78.9487 122.47 78.9687 123.12 79.0892 123.63C79.1294 123.81 79.5109 124.82 79.8622 124.43C82.7637 121.13 86.3176 118.61 90.4941 117.17C94.4496 115.8 98.6863 115.33 102.782 114.52C110.533 112.98 118.524 111.3 125.361 107.16C129.196 104.84 132.429 101.74 135.029 98.12C135.441 97.54 134.849 95.2 134.246 96.03H134.226Z" fill="#1D1D1B"/>
<path d="M99.3589 46.7899C100.202 49.5099 100.644 52.2999 100.674 55.1499C100.674 56.0999 102.451 55.8399 102.883 55.4199C103.154 55.2199 103.104 55.1799 102.752 55.3199C102.883 55.3499 103.013 55.3899 103.134 55.4599C103.385 55.6399 103.666 55.7899 103.917 55.9799C104.489 56.4099 105.001 56.9099 105.533 57.3899C106.547 58.2999 107.672 58.9999 108.987 59.4199C110.623 59.9399 112.37 60.0499 114.077 60.0699C115.502 60.0799 115.954 59.6199 116.888 58.6899L114.91 58.8099C118.514 61.5199 121.727 64.6099 124.508 68.1499C125.16 68.9799 127.56 68.2799 126.837 67.3699C123.956 63.6999 120.663 60.4799 116.928 57.6699C116.396 57.2699 115.432 57.3099 114.95 57.7899L113.946 58.7899L115.121 58.3999C113.545 58.3999 111.918 58.3999 110.392 57.9499C109.007 57.5399 108.073 56.7299 107.029 55.7899C105.403 54.3299 102.953 52.5699 100.945 54.5299L103.154 54.7999C103.124 51.9499 102.682 49.1599 101.839 46.4399C101.497 45.3599 99.0377 45.7699 99.3589 46.7999V46.7899Z" fill="#1D1D1B"/>
<path d="M439.447 55.1399C430.813 54.3999 422.189 53.6699 413.555 52.9299C412.34 52.8299 411.135 52.7199 409.921 52.6199C409.218 52.5599 408.455 53.1499 409.087 53.7999C411.266 56.0399 413.414 58.3199 415.533 60.6199C418.725 64.0899 422.078 67.5899 424.689 71.5199V70.8899C420.352 79.9299 417.008 89.6799 416.687 99.7799C416.516 105.06 416.968 110.21 419.398 114.95C423.825 123.58 431.967 130.13 440.481 134.51C453.994 141.46 469.605 143.3 484.614 142.14C493.58 141.45 502.294 139.44 510.797 136.57C520.977 133.13 530.826 128.5 539.731 122.48C549.379 115.95 557.983 107.61 563.766 97.4499C570.271 86.0199 573.022 72.3799 571.456 59.3199C569.609 43.9199 558.435 30.9099 544.149 25.2499C528.266 18.9499 509.994 21.1099 494.021 25.8799C477.456 30.8299 461.785 38.9599 447.589 48.7299C444.527 50.8399 441.535 53.0399 438.613 55.3399C437.569 56.1599 439.768 57.2099 440.551 56.5899C454.365 45.6899 469.927 36.6599 486.411 30.4399C502.957 24.1899 522.022 20.2299 539.42 25.3199C555.272 29.9599 567.721 43.9599 569.117 60.5499C570.271 74.2699 567.059 88.1299 559.529 99.7099C552.863 109.95 543.386 118.05 532.945 124.3C523.708 129.83 513.639 134.02 503.278 136.97C491.953 140.19 480.187 141.48 468.431 140.54C454.988 139.46 441.364 135.1 431.054 126.17C427.6 123.18 424.498 119.7 422.249 115.72C419.619 111.07 418.986 106.1 419.097 100.77C419.207 95.4399 420.201 90.2099 421.707 85.1299C422.47 82.5599 423.373 80.0399 424.387 77.5599C424.899 76.3099 425.432 75.0699 425.994 73.8399C426.385 72.9899 427.329 71.8599 426.787 70.9799C425.191 68.3699 422.942 66.0199 420.924 63.7399C418.715 61.2399 416.456 58.7899 414.167 56.3699C413.133 55.2699 412.089 54.1799 411.035 53.0999L410.202 54.2799C418.836 55.0199 427.46 55.7499 436.094 56.4899C437.308 56.5899 438.513 56.6999 439.728 56.7999C440.21 56.8399 440.842 56.5999 440.792 56.0299C440.742 55.4599 439.858 55.1899 439.407 55.1599L439.447 55.1399Z" fill="#1D1D1B"/>
<path d="M233.476 118.94C228.226 122.29 222.644 125.13 217.494 128.63C214.793 130.47 211.249 133.12 211.741 136.83C212.042 139.1 213.679 141.07 215.195 142.68C215.757 143.28 218.086 142.49 217.494 141.85C215.937 140.19 214.14 138.08 214.16 135.67C214.16 133.7 215.586 132.11 217.002 130.91C219.251 129 221.861 127.52 224.401 126.03C227.935 123.96 231.489 121.91 234.942 119.71C236.318 118.83 234.25 118.46 233.476 118.95V118.94Z" fill="#1D1D1B"/>
<path d="M244.61 144.39C252.311 152.57 259.338 161.39 266.326 170.16C273.313 178.93 280.05 187.67 286.837 196.49C288.583 198.76 290.35 201.01 291.886 203.43C293.422 205.85 295.089 208.69 294.718 211.59L295.902 211.03C293.583 210.51 291.374 209.38 289.256 208.34C286.696 207.09 284.186 205.74 281.706 204.34C281.295 204.11 280.451 203.8 280.07 204.26C279.688 204.72 280.08 205.26 280.502 205.49C283.182 207 285.883 208.45 288.644 209.8C290.973 210.93 293.392 212.12 295.932 212.69C296.414 212.8 297.047 212.71 297.117 212.13C297.428 209.71 296.324 207.27 295.199 205.19C293.824 202.64 292.097 200.28 290.34 197.98C287.298 194.01 284.236 190.05 281.174 186.09C273.614 176.32 265.984 166.6 258.093 157.1C254.278 152.51 250.403 147.95 246.317 143.61C245.544 142.79 243.496 143.19 244.62 144.38L244.61 144.39Z" fill="#1D1D1B"/>
</svg>
